<svg height="512" viewBox="0 0 53 60" width="512" xmlns="http://www.w3.org/2000/svg" xmlns:xlink="http://www.w3.org/1999/xlink"><linearGradient id="linearGradient-1" x1="20.642%" x2="89.008%" y1="8.482%" y2="91.555%"><stop offset="0" stop-color="#d3dff2"/><stop offset=".17" stop-color="#d3dff2"/><stop offset=".2" stop-color="#d3dff2"/><stop offset=".2" stop-color="#dae2f2"/><stop offset=".2" stop-color="#ebeaf2"/><stop offset=".2" stop-color="#f6eff2"/><stop offset=".2" stop-color="#fdf2f2"/><stop offset=".2" stop-color="#fff3f2"/><stop offset=".25" stop-color="#fff3f2"/><stop offset=".26" stop-color="#fff3f2"/><stop offset=".26" stop-color="#d3dff2"/><stop offset=".4" stop-color="#d3dff2"/><stop offset=".42" stop-color="#d3dff2"/><stop offset=".42" stop-color="#dae2f2"/><stop offset=".42" stop-color="#ebeaf2"/><stop offset=".42" stop-color="#f6eff2"/><stop offset=".42" stop-color="#fdf2f2"/><stop offset=".42" stop-color="#fff3f2"/><stop offset=".49" stop-color="#fff3f2"/><stop offset=".5" stop-color="#fff3f2"/><stop offset=".5" stop-color="#f8f0f2"/><stop offset=".5" stop-color="#e7e8f2"/><stop offset=".5" stop-color="#dce3f2"/><stop offset=".5" stop-color="#d5e0f2"/><stop offset=".5" stop-color="#d3dff2"/><stop offset=".71" stop-color="#d3dff2"/><stop offset=".74" stop-color="#d3dff2"/><stop offset=".74" stop-color="#fff3f2"/><stop offset=".83" stop-color="#fff3f2"/><stop offset=".85" stop-color="#fff3f2"/><stop offset=".85" stop-color="#d3dff2"/></linearGradient><g id="019---Astronaut-Sitting-On-Planet" fill="none"><g id="Icons_copy" transform="translate(1 1)"><path id="Shape" d="m35 53.36c-2.4700619 2.9375797-6.1119562 4.6335491-9.95 4.6335491s-7.4799381-1.6959694-9.95-4.6335491c6.6061261.8496459 13.2938739.8496459 19.9 0z" fill="#e8edfc"/><path id="Shape" d="m31.62 53.71c-2.1026341 2.3450338-4.9911051 3.8390705-8.12 4.2 4.3569239.5319027 8.6864444-1.1810815 11.5-4.55-1.13.15-2.25.26-3.38.35z" fill="#cad9fc"/><path id="Shape" d="m50 45c0 4.52-6.64 7.23-15 8.36-6.6061261.8496459-13.2938739.8496459-19.9 0-8.46-1.13-15.1-3.84-15.1-8.36s6.64-7.23 15.05-8.36c-.9417482 1.1209281-1.6887816 2.3918989-2.21 3.76-14.54 2.69-7.13 7.83 7.8 8.49 8.38.49 17-.78 17-1 8.72-1.74 10.71-5.19.33-7.34v-3.41c6.94 1.33 12.03 3.86 12.03 7.86z" fill="#e8edfc"/><path id="Shape" d="m38 37.14v.69c5.33 1.46 9 3.81 9 7.17 0 4.52-6.64 7.23-15 8.36-2.8185244.3779915-5.6566528.5916858-8.5.64 3.844087.0826723 7.6888244-.1312957 11.5-.64 8.41-1.13 15-3.84 15-8.36 0-4-5.09-6.53-12-7.86z" fill="#cad9fc"/><path id="Shape" d="m35.6 16.36c-.2610283.4865419-.565607.9484304-.91 1.38-3.0408082 3.8914956-8.2931201 5.295377-12.87 3.44l-.13-.06c-3.8725363-1.6423587-6.4693918-5.3493797-6.69-9.55-.0099793-.189869-.0099793-.380131 0-.57.0127489-4.99738191 3.3925791-9.3581874 8.2287958-10.61715396 4.8362166-1.25896655 9.9133595.90031511 12.3612042 5.25715396-3.99-2.5-10.21-2.13-13.59 1.06-1.2688994 1.06782854-2.0013815 2.64157805-2.0013815 4.3 0 1.6584219.7324821 3.2321715 2.0013815 4.3 3.3 3.14 9.5 3.61 13.6 1.06z" fill="#e8edfc"/><path id="Shape" d="m31.6 4.18c1.4165477.21819911 2.7759593.71438435 4 1.46-1.9244151-3.49742147-5.6081504-5.66161598-9.6-5.64-.4853764.00107176-.9700167.03783759-1.45.11 2.7909086.3851789 5.3208198 1.84570925 7.05 4.07z" fill="#cad9fc"/><path id="Shape" d="m31.62 17.82c-1.2050193 1.5294235-2.801436 2.7042756-4.62 3.4-.8243189.3222988-1.6834797.5471573-2.56.67 1.8800988.2600839 3.7955068.0292703 5.56-.67 1.8420776-.7125083 3.4537464-1.9160721 4.66-3.48.344393-.4315696.6489717-.8934581.91-1.38-1.2103537.7365103-2.5515945 1.23226-3.95 1.46z" fill="#cad9fc"/><path id="Shape" d="m36.1 15.36c-.15.34-.31.67-.49 1-4.11 2.55-10.31 2.08-13.61-1.06-1.2688994-1.0678285-2.0013815-2.6415781-2.0013815-4.3 0-1.65842195.7324821-3.23217146 2.0013815-4.3 3.38-3.19 9.6-3.56 13.59-1.06 1.6937069 2.97816601 1.8827413 6.5809401.51 9.72z" fill="url(#linearGradient-1)"/><path id="Shape" d="m35.59 5.64c-2.2875113-1.34528017-4.9590598-1.88733348-7.59-1.54 1.6249571.16804941 3.1925095.69398202 4.59 1.54 1.6937069 2.97816601 1.8827413 6.5809401.51 9.72-.15.34-.31.67-.49 1-1.4055379.8460369-2.9788356 1.3750199-4.61 1.55 2.6350674.3388893 5.3080987-.2062684 7.6-1.55.18-.32.34-.65.49-1 1.3757955-3.1374994 1.1904699-6.74023027-.5-9.72z" fill="#a4c2f7"/><path id="Shape" d="m30.48 30.67c-.544419.8387125-1.4801402 1.3405307-2.48 1.33-.93 0-.88-.09-7.38-3.33-3.5331262-1.767844-5.500256-5.6331525-4.85-9.53.29-1.78.28-2.06.67-2.71 1.188993 2.0962265 3.0334909 3.743978 5.25 4.69.1613012.9434956.7631448 1.753384 1.62 2.18l6 3c.5037009.2514648.9264792.6395891 1.22 1.12.6049118 1.000298.5736901 2.2608748-.08 3.23z" fill="#e8edfc"/><path id="Shape" d="m37.09 28.17c-1 3.9-4.86 3.24-5.81 1.15-.1084721-.2321458-.1858075-.4776017-.23-.73-.27-1.61 1.07-2.75-1-7.34 1.8420776-.7125083 3.4537464-1.9160721 4.66-3.48 1.39 1.19 2 3.65 2.32 5.38.3904522 1.6483723.410943 3.3627664.06 5.02z" fill="#e8edfc"/><g fill="#a4c2f7"><path id="Shape" d="m31 32.5v9.9c.0229769 1.6799759-1.1317218 3.1473186-2.77 3.52-1.0331243.2241586-2.1121714-.032052-2.9342528-.6967136-.8220815-.6646616-1.2985817-1.6661275-1.2957472-2.7232864v-6.5c.0137136-.4706972-.3028167-.8871845-.76-1 0 0-4.62-1.14-4.85-1.22-1.406253-.4890041-2.359678-1.8014594-2.39-3.29v-7.36c.7002072 2.410051 2.374928 4.418266 4.62 5.54 6.5 3.24 6.45 3.33 7.38 3.33.9998598.0105307 1.935581-.4912875 2.48-1.33.3384926.5504991.5184361 1.1837616.52 1.83z"/><path id="Shape" d="m31.05 28.59h-.05c-.051823-.4116126-.191658-.8072433-.41-1.16-.2935208-.4804109-.7162991-.8685352-1.22-1.12l-6-3c-.8568552-.426616-1.4586988-1.2365044-1.62-2.18l.13.06c2.6320709 1.0700351 5.5779291 1.0700351 8.21 0 2.03 4.65.69 5.81.96 7.4z"/><path id="Shape" d="m38 30.5v10.06c-.0106632.4997275-.1301009.9911284-.35 1.44-.7090016 1.464131-2.3333219 2.2467437-3.9202175 1.8887974-1.5868955-.3579464-2.7179657-1.7620757-2.7297825-3.3887974v-8c-.0015639-.6462384-.1815074-1.2795009-.52-1.83.430173-.5988084.616111-1.338985.52-2.07h.08c.0441925.2523983.1215279.4978542.23.73.95 2.09 4.83 2.75 5.81-1.15.5684332.6389356.8816954 1.4648088.88 2.32z"/></g><path id="Shape" d="m37.11 28.17c-.2023482 1.1867259-.9987595 2.1869581-2.11 2.65v9.74c-.0106632.4997275-.1301009.9911284-.35 1.44-.3496509.7192952-.9307048 1.3003491-1.65 1.65.4662762.2308995.9796852.3506949 1.5.35 1.3460365-.0095387 2.5687762-.7858813 3.15-2 .2198991-.4488716.3393368-.9402725.35-1.44v-10.06c.001411-.8599544-.3156362-1.6899768-.89-2.33z" fill="#7facfa"/><path id="Shape" d="m18.39 33.82c-.439879.243808-.8580732.5248345-1.25.84l-2.54-1c-.9921172-.393589-1.7004059-1.2846619-1.86-2.34l-2.35-15.71c-.2240566-1.48989.6916827-2.9148488 2.14-3.33l2.47-.71c.0860428 1.7088766.5724498 3.3736215 1.42 4.86-.39.65-.38.93-.67 2.71-.227647 1.3335236-.1489965 2.7013584.23 4v7.36c.0208225 1.5048247.9856673 2.8339884 2.41 3.32z" fill="#cad9fc"/><path id="Shape" d="m37.67 47.9c0 .25-8.87 1.47-17 1-2.7924188-.1088915-5.5714675-.4433137-8.31-1-1.1381708-4.9780351.7434765-10.1613671 4.81-13.25.3919268-.3151655.810121-.596192 1.25-.84.23.08 4.83 1.22 4.85 1.22.4342125.1217471.7332165.5190537.73.97v6.5c-.0028345 1.0571589.4736657 2.0586248 1.2957472 2.7232864.8220814.6646616 1.9011285.9208722 2.9342528.6967136 1.6382782-.3726814 2.7929769-1.8400241 2.77-3.52v-1.9c.0118168 1.6267217 1.142887 3.030851 2.7297825 3.3887974 1.5868956.3579463 3.2112159-.4246664 3.9202175-1.8887974.4587614 1.939142.4656042 3.9577924.02 5.9z" fill="#e8edfc"/></g><path id="Shape" d="m26.49 57.9c-4.3364682.5244256-8.6432064-1.184717-11.44-4.54-8.41-1.13-15.05-3.84-15.05-8.36s6.66-7.22 15.06-8.36c.6169674-.7417875 1.3145972-1.4125854 2.08-2l-2.54-1c-.9921172-.393589-1.7004059-1.2846619-1.86-2.34l-2.35-15.69c-.2240566-1.48989.6916827-2.9148488 2.14-3.33l2.47-.71c-.0099793-.189869-.0099793-.380131 0-.57 0-6.07513225 4.9248678-11 11-11 .5218981.00110195 1.0431114.03785417 1.56.11-5.4652541.72165635-9.5523125 5.37731178-9.56 10.89-.0099793.189869-.0099793.380131 0 .57l-2.49.71c-1.4483173.4151512-2.3640566 1.84011-2.14 3.33l2.37 15.69c.1595941 1.0553381.8678828 1.946411 1.86 2.34l2.54 1c-.7628415.5938879-1.4631307 1.2640211-2.09 2-1.19.16-2.33.35-3.43.58-6.71 1.36-11.62 3.9-11.62 7.78 0 4.52 6.64 7.23 15.05 8.36 2.1199551 2.5483451 5.1452246 4.175682 8.44 4.54z" fill="#fff" transform="translate(1 1)"/><g id="Layer_2" transform="translate(0 -1)"><path id="Rectangle-path" d="m12.149 25.336h2v8h-2z" fill="#fff" transform="matrix(.989 -.148 .148 .989 -4.201 2.272)"/><g fill="#428dff"><path id="Shape" d="m3 22c-.55228475 0-1 .4477153-1 1v1h-1c-.55228475 0-1 .4477153-1 1s.44771525 1 1 1h1v1c0 .5522847.44771525 1 1 1s1-.4477153 1-1v-1h1c.55228475 0 1-.4477153 1-1s-.44771525-1-1-1h-1v-1c0-.5522847-.44771525-1-1-1z"/><path id="Shape" d="m52 6h-1v-1c0-.55228475-.4477153-1-1-1s-1 .44771525-1 1v1h-1c-.5522847 0-1 .44771525-1 1s.4477153 1 1 1h1v1c0 .55228475.4477153 1 1 1s1-.44771525 1-1v-1h1c.5522847 0 1-.44771525 1-1s-.4477153-1-1-1z"/><path id="Shape" d="m40 38.33v-5.83c-.0115479-.8959762-.2939192-1.7674925-.81-2.5.2319766-1.6652606.1642435-3.3585882-.2-5-.2493802-1.8878897-.9340531-3.6920028-2-5.27.15-.24.3-.48.44-.73.2147872-.4014828.4051336-.8155698.57-1.24.6577726-1.5008077.9982283-3.121377 1-4.76.0217557-2.0637549-.5137301-4.09514638-1.55-5.88v-.06c-1.9806241-3.49005026-5.5746783-5.75908436-9.5772726-6.04641919-4.0025943-.28733484-7.8839 1.4450645-10.3427274 4.61641919-1.6114798 2.05300427-2.500758 4.5802417-2.53 7.19l-1.75.5c-1.9337648.5508253-3.1580957 2.4515348-2.86 4.44l1.17 7.78c.0823117.5426636.5866369.9175603 1.13.84.2627206-.0394568.4989425-.1818336.6565359-.3957104.1575934-.2138767.2236039-.4816725.1834641-.7442896l-1.16-7.78c-.150024-.9913198.4571295-1.9405317 1.42-2.22l1.35-.38c.2026863 1.2529939.5973207 2.4672538 1.17 3.6-.1231433.2855836-.2137146.5841337-.27.89l-.26 1.65c-.2344753 1.4125944-.1594125 2.8592583.22 4.24v7.25c.0044559.9156811.2869222 1.8084141.81 2.56l-.81-.34c-.6614115-.2623927-1.1336039-.8564413-1.24-1.56-.0535898-.3572656-.2937078-.6588028-.6299038-.7910254-.336196-.1322227-.7173939-.075043-1 .15-.2826062.2250429-.423686.5837598-.3700962.9410254.2127922 1.4071175 1.1571771 2.5952146 2.48 3.12l1 .41c-.25.24-.48.48-.7.72-10.02 1.41-15.54 4.71-15.54 9.3s5.53 7.89 15.56 9.3c2.6476179 2.9874204 6.4481883 4.6974922 10.44 4.6974922s7.7923821-1.7100718 10.44-4.6974922c10.03-1.41 15.56-4.7 15.56-9.3 0-4-4.15-7-12-8.67zm-27.91 10.28c-3.8-.91-5.09-2-5.09-2.4s1.37-1.56 5.4-2.49c-.2633685 1.0735228-.3976517 2.1746455-.4 3.28-.0007808.5379453.0292685 1.0754933.09 1.61zm2.2.47h-.09c-.1291057-.6859047-.1960439-1.3820617-.2-2.08.0019697-2.8250521 1.0005796-5.5588353 2.82-7.72.5773494-.6760213 1.224246-1.2894 1.93-1.83.2532304-.1974345.5169485-.3810357.79-.55l4.46 1.1v6.5c-.000003 1.1952088.4754753 2.3413195 1.3215531 3.1855213.8460777.8442017 1.993241 1.3171347 3.1884469 1.3144787.309449.0013229.618062-.032222.92-.1 1.5271966-.3270949 2.773811-1.4259344 3.29-2.9.7845365.6423318 1.7660639.9953993 2.78 1 .888268.0066378 1.758459-.2509387 2.5-.74v.74c-.0051532.6912542-.0720862 1.3806643-.2 2.06h-.09c-3.868822.6512446-7.7868329.9657562-11.71.94-3.9225874.0323644-7.8405942-.2754551-11.71-.92zm3.47-27.78.09-.57c1.0947136 1.3065977 2.4592953 2.360737 4 3.09.3208493 1.026799 1.0417626 1.8810812 2 2.37l6 3c.335159.1726405.6182171.431535.82.75.4631223.7610706.367001 1.7367058-.2357396 2.3927657-.6027405.65606-1.5667529.8343395-2.3642604.4372343l-6-3c-1.9807201-1.0040381-3.4549877-2.7861995-4.07-4.92-.3454736-1.1503139-.4275022-2.3636539-.24-3.55zm12.71 3.19c.3844541.9135728.6402284 1.8760919.76 2.86.0099931.109773.0099931.220227 0 .33-.1375635-.0928841-.2812213-.1764061-.43-.25l-5-2.49c.3986757.0409692.799226.0609968 1.2.06 1.1753074-.0004314 2.3442714-.1722388 3.47-.51zm-12.4700006 4.59c.8792052 1.0313638 1.9573606 1.8748419 3.1700006 2.48l6 3c.5654964.2923521 1.1934115.4433263 1.83.44.7032866.00459 1.3945956-.1820634 2-.54v9.9c.0648601 1.249524-.7795743 2.3641774-2 2.64-.7351105.1463314-1.4971514-.0435199-2.077689-.5176257-.5805377-.4741057-.9188168-1.182849-.922311-1.9323743v-6.55c-.0007104-.9191073-.6277552-1.7194145-1.52-1.94l-4.61-1.15h-.15c-1.0303221-.3578889-1.7207396-1.3292903-1.72-2.42zm21.6800006 15 .12-.33c4.21 1 5.2 2.12 5.2 2.45s-1.27 1.48-5.09 2.4c.1735234-1.5090281.0958042-3.0363802-.23-4.52zm-1.68-1.53c-.0076314.3478173-.0930549.6895111-.25 1-.4910806 1.0618312-1.6551364 1.6386009-2.7974513 1.3860891-1.1423149-.2525117-1.9547958-1.2662-1.9525487-2.4360891v-8c-.0043334-.3846239-.0546917-.7673464-.15-1.14.3116224.1942082.6479782.3455683 1 .45.3731294.1144009.7599023.1783025 1.15.19.7576558.000177 1.4997809-.2148312 2.14-.62.319575-.20562.6090122-.4546705.86-.74zm-1-17.24c.3 1.53.8 5.23-1 6.37-.5048865.3050581-1.1155572.3813919-1.68.21-.5236108-.143666-.9583045-.5089548-1.19-1-.1792004-.6167866-.1826637-1.2713517-.01-1.89.1049464-.6039718.1385101-1.218189.1-1.83-.1364899-1.1725534-.4360492-2.320303-.89-3.41 1.2504034-.6203005 2.3838424-1.4526169 3.35-2.46.6616858 1.2532172 1.1079081 2.6087868 1.32 4.01zm-1.14-16.93c.746212 1.42583554 1.1372836 3.0107045 1.14 4.62.0129624 1.3763527-.266537 2.7397645-.82 4-.1046183.2294233-.2214524.4530771-.35.67-1.6301346.9009307-3.4677039 1.3594611-5.33 1.33-1.1244881.0075763-2.2437053-.1542383-3.32-.48-1.2996413-.3685618-2.4948947-1.0363968-3.49-1.95-1.0422827-.8978859-1.6561878-2.1947149-1.69-3.57.0338122-1.3752851.6477173-2.6721141 1.69-3.57 1.8829426-1.63876842 4.314971-2.50658473 6.81-2.43 1.8767191-.01758426 3.7251097.45830735 5.36 1.38zm-16.75-1.53c1.6641584-2.13153275 4.1206444-3.49820873 6.8092624-3.78836092s5.3801279.52095872 7.4607376 2.24836092c-.9463838-.20459378-1.9117548-.30850524-2.88-.31-3.009651-.06266414-5.9329249 1.00813216-8.19 3-1.4208906 1.2809865-2.2555916 3.0876987-2.31 5 .0449833 1.9145019.8813243 3.724764 2.31 5 1.2230034 1.1284072 2.6916951 1.9569 4.29 2.42 1.265369.3775239 2.5795288.5662238 3.9.56.9616327-.0015545 1.9203678-.1054733 2.86-.31-1.7805405 1.4995448-4.0321409 2.3244236-6.36 2.33-1.3040518.0063761-2.5961583-.2486449-3.8-.75-2.8940646-1.1875917-5.0656311-3.6610656-5.8686105-6.6845087-.8029793-3.023443-.1448387-6.24844305 1.7786105-8.7154913zm-.18 49.83c2.2733333.2133333 4.63.32 7.07.32s4.7966667-.1066667 7.07-.32c-4.2055237 3.0941728-9.9344763 3.0941728-14.14 0zm16.88-2.31c-3.2519958.4315486-6.5295174.6420317-9.81.63-3.2837949.011687-6.5646188-.1987936-9.82-.63-8.88-1.19-14.18-3.95-14.18-7.37 0-3.11 4.4-5.67 11.88-7-.2798546.4913808-.530295.9989401-.75 1.52-5.39 1.06-8.13 2.64-8.13 4.69s2.74 3.62 8.21 4.69l.72.14c3.9874736.6727124 8.0263216.9939464 12.07.96 4.044853.0207339 8.0837094-.3138855 12.07-1l.79-.15c5.4-1.06 8.14-2.64 8.14-4.68s-2.36-3.39-7-4.45v-1.35c6.37 1.41 10 3.8 10 6.63 0 3.42-5.3 6.18-14.19 7.37z"/><path id="Shape" d="m29 9c0 .55228475.4477153 1 1 1 .16 0 4 0 4 3 0 .5522847.4477153 1 1 1s1-.4477153 1-1c0-4-3.92-5-6-5-.5522847 0-1 .44771525-1 1z"/><path id="Shape" d="m13.17 30.34c-.5522847 0-1-.4477153-1-1s.4477153-1 1-1 1 .4477153 1 1-.4477153 1-1 1z"/><path id="Shape" d="m46 31c-.5522847 0-1 .4477153-1 1v1h-1c-.5522847 0-1 .4477153-1 1s.4477153 1 1 1h1v1c0 .5522847.4477153 1 1 1s1-.4477153 1-1v-1h1c.5522847 0 1-.4477153 1-1s-.4477153-1-1-1h-1v-1c0-.5522847-.4477153-1-1-1z"/></g></g></g></svg>