<svg height="512" viewBox="0 0 60 60" width="512" xmlns="http://www.w3.org/2000/svg" xmlns:xlink="http://www.w3.org/1999/xlink"><linearGradient id="linearGradient-1" x1="22.103%" x2="77.897%" y1="-6.143%" y2="109.357%"><stop offset="0" stop-color="#d3dff2"/><stop offset=".17" stop-color="#d3dff2"/><stop offset=".2" stop-color="#d3dff2"/><stop offset=".2" stop-color="#dae2f2"/><stop offset=".2" stop-color="#ebeaf2"/><stop offset=".2" stop-color="#f6eff2"/><stop offset=".2" stop-color="#fdf2f2"/><stop offset=".2" stop-color="#fff3f2"/><stop offset=".25" stop-color="#fff3f2"/><stop offset=".26" stop-color="#fff3f2"/><stop offset=".26" stop-color="#d3dff2"/><stop offset=".4" stop-color="#d3dff2"/><stop offset=".42" stop-color="#d3dff2"/><stop offset=".42" stop-color="#dae2f2"/><stop offset=".42" stop-color="#ebeaf2"/><stop offset=".42" stop-color="#f6eff2"/><stop offset=".42" stop-color="#fdf2f2"/><stop offset=".42" stop-color="#fff3f2"/><stop offset=".49" stop-color="#fff3f2"/><stop offset=".5" stop-color="#fff3f2"/><stop offset=".5" stop-color="#f8f0f2"/><stop offset=".5" stop-color="#e7e8f2"/><stop offset=".5" stop-color="#dce3f2"/><stop offset=".5" stop-color="#d5e0f2"/><stop offset=".5" stop-color="#d3dff2"/><stop offset=".71" stop-color="#d3dff2"/><stop offset=".74" stop-color="#d3dff2"/><stop offset=".74" stop-color="#fff3f2"/><stop offset=".83" stop-color="#fff3f2"/><stop offset=".85" stop-color="#fff3f2"/><stop offset=".85" stop-color="#d3dff2"/></linearGradient><g id="012---Astronaut-with-Flag" fill="none"><g id="Icons_copy" transform="translate(3 1)"><path id="Shape" d="m53 13c0 4.76-2.78 8.33-6.78 10.29-2.4089408 1.1521844-5.0498338 1.737149-7.72 1.71-2.6996212.0208782-5.3680546-.5778088-7.8-1.75-3.94-2-6.7-5.5-6.7-10.25 0-7.18 6.48-13 14.5-13s14.5 5.82 14.5 13z" fill="#e8edfc"/><path id="Shape" d="m38.5 0c-.5008631-.00209788-1.0015091.02126559-1.5.07 7.3.67 13 6.2 13 12.93 0 4.76-2.78 8.33-6.78 10.29-1.9799665.9427879-4.1215425 1.4993941-6.31 1.64.53 0 1.06.07 1.6.07 2.6667966.0256198 5.3040977-.5593069 7.71-1.71 4-2 6.78-5.53 6.78-10.29 0-7.18-6.49-13-14.5-13z" fill="#cad9fc"/><path id="Shape" d="m37.41 46-.79 9.53c-.054967.6761406-.3661859 1.3057327-.87 1.76-.7642338.6954405-1.85835.8937239-2.81803.510703-.9596801-.3830209-1.616597-1.2801645-1.69197-2.310703l-.79-11.91c1.9501722 1.5259546 4.3441722 2.3754384 6.82 2.42z" fill="#a4c2f7"/><path id="Shape" d="m51 42c-.9654824.0033796-1.8735861-.4581158-2.44-1.24-.4245172 1.1880592-1.1811464 2.229292-2.18 3l-.09.08c-2.0334165 1.3759482-4.4250226 2.1268013-6.88 2.16h-1c-.33 0-.66 0-1 0h-.14c-2.4712167-.0330964-4.8647503-.8683765-6.82-2.38-2.15-1.83-3-4.67-2.1-8.33l-1.21 1c-.8712.7430728-2.0894083.9254161-3.14.47v-7.1l.95.62 4.24-3.66c-.76-1.21-.24-2.6 1.5-3.35 2.4366249 1.1667814 5.1085746 1.7586474 7.81 1.73 2.6667966.0256198 5.3040977-.5593069 7.71-1.71 1.42.65 2.06 1.87 1.56 3 1.05.15 2.49.81 3.62 3.07 1.2436753 2.9169459 2.120381 5.9770182 2.61 9.11.158532.8825967-.0860636 1.7898343-.6667677 2.4731295-.580704.6832951-1.4366221 1.0709952-2.3332323 1.0568705z" fill="#e8edfc"/><path id="Shape" d="m54 38.47c-.4711684-3.1269511-1.3276838-6.1835354-2.55-9.1-1.13-2.26-2.57-2.92-3.62-3.07.5-1.14-.14-2.36-1.56-3-.6143865.301143-1.2493041.5584517-1.9.77.6106456.5743705.7982789 1.468623.47 2.24 1.05.15 2.49.81 3.62 3.07 1.2180984 2.9137251 2.0712379 5.9668894 2.54 9.09.2101609 1.2448049-.3814511 2.4879895-1.48 3.11.4484396.2662644.958546.4110243 1.48.42.8966102.0141247 1.7525283-.3735754 2.3332323-1.0568705.5807041-.6832952.8252997-1.5905328.6667677-2.4731295z" fill="#cad9fc"/><path id="Shape" d="m46.41 33.37 1.93 7.08c.0569736.1092744.123925.2130491.2.31" fill="#e8edfc"/><path id="Shape" d="m39.41 46c2.44712-.0341251 4.8311486-.7813061 6.86-2.15l.09-.08-.78 11.75c-.1204826 1.39599-1.2888205 2.4678363-2.69 2.4678363s-2.5695174-1.0718463-2.69-2.4678363z" fill="#a4c2f7"/><path id="Shape" d="m46.27 43.82c-.9018094.6737674-1.9182219 1.1785856-3 1.49l-.68 10.18c-.0699683.8135607-.5083734 1.550376-1.19 2 .4412354.3041986.9640694.4680199 1.5.47 1.4161647-.0017344 2.590345-1.0973449 2.69-2.51l.78-11.75z" fill="#7facfa"/><path id="Shape" d="m24 2v54c0 1.1045695-.8954305 2-2 2s-2-.8954305-2-2v-54c0-1.1045695.8954305-2 2-2s2 .8954305 2 2z" fill="#cad9fc"/><path id="Shape" d="m20 3v21.48c-.67-5.19-5.73-7.35-12-6.48-7.2 1-8-12-8-12 18.4 6 20-3 20-3z" fill="#e8edfc"/><path id="Shape" d="m17 6.69v12.82c1.6938135 1.1375863 2.7933361 2.970124 3 5v-21.51c-.4391719 1.59582296-1.5274093 2.93435491-3 3.69z" fill="#cad9fc"/><path id="Shape" d="m31 33-2.65 2.25" fill="#e8edfc"/><path id="Shape" d="m20 27.07v7.14l-3.21-2.08c-1.1392108-.7470855-1.6320077-2.1679832-1.2-3.46.2916144-.8652349.9613914-1.5505722 1.8197021-1.8619774.8583106-.3114052 1.8117206-.2149793 2.5902979.2619774z" fill="#e8edfc"/><path id="Shape" d="m53 13.28c0 4-6.49 6.72-14.5 6.72s-14.5-2.7-14.5-6.72 6.49-7.28 14.5-7.28 14.5 3.26 14.5 7.28z" fill="url(#linearGradient-1)"/><path id="Shape" d="m38.5 6c-.51 0-1 0-1.5 0 7.3.38 13 3.47 13 7.24s-5.7 6.41-13 6.76h1.5c8 0 14.5-2.7 14.5-6.72s-6.49-7.28-14.5-7.28z" fill="#a4c2f7"/><path id="Shape" d="m43.41 33v2c0 .5522847-.4477153 1-1 1h-3c-.5522847 0-1-.4477153-1-1v-2c0-.5522847.4477153-1 1-1h3c.5522847 0 1 .4477153 1 1z" fill="#e8edfc"/></g><g id="whites" fill="#fff" transform="translate(3 7)"><path id="Shape" d="m3.09.91c-1-.26-2-.56-3.09-.91 0 0 .8 13 8 12 .34-.05.67-.08 1-.11-4.39-1.17-5.62-8.41-5.91-10.98z"/><path id="Shape" d="m23 50v-21.79l-3.21-2.08c-1.1392108-.7470855-1.6320077-2.1679832-1.2-3.46.216648-.7045884.6917663-1.3011655 1.33-1.67-.7778609-.4448013-1.7138283-.5186093-2.551793-.2012278-.8379646.3173816-1.4901899.9927221-1.778207 1.8412278-.4320077 1.2920168.0607892 2.7129145 1.2 3.46l3.21 2.11v21.79c.0053205.829438.5220598 1.5695143 1.2988851 1.8602689s1.6525013.0718395 2.2011149-.5502689c-.3192922-.3620202-.496881-.827303-.5-1.31z"/><path id="Shape" d="m20 13.51c-.17 0-2.38-2.1-7.87-1.64 1.7384756.1131197 3.4172373.6784522 4.87 1.64 1.4261532.9633489 2.4394623 2.4262248 2.84 4.1.21.89.16.81.16 3.38.9424408-.5113679 2.0861522-.4808689 3 .08 0-2.66.05-2.56-.16-3.46-.4005377-1.6737752-1.4138468-3.1366511-2.84-4.1z"/></g><g id="Layer_2" transform="translate(0 -1)"><path id="Shape" d="m4 16.24 1.8-.84c.46068537 1.0858992 1.16562303 2.050911 2.06 2.82.84663707.6690472 1.93365288.9552947 3 .79l.28 2c-1.60504599.2221957-3.23172518-.2142304-4.51-1.21-1.13667782-.9705782-2.03628639-2.1882993-2.63-3.56z" fill="#fff"/><g fill="#428dff"><path id="Shape" d="m4 51c0-.5522847-.44771525-1-1-1h-2c-.55228475 0-1 .4477153-1 1s.44771525 1 1 1h2c.55228475 0 1-.4477153 1-1z"/><path id="Shape" d="m59 50h-8.92l.25-3.79c.6000684-.5259607 1.1130851-1.1436058 1.52-1.83.6430913.4069927 1.3889447.622076 2.15.62.2652309-.0023577.529681-.0291375.79-.08 2.1388973-.4191435 3.548516-2.4735404 3.17-4.62-.48075-3.2255224-1.3677982-6.3772316-2.64-9.38-.6389952-1.4991688-1.8266398-2.6975451-3.32-3.35.011784-.8115985-.2972803-1.5950406-.86-2.18 3.6389505-2.1972821 5.8621606-6.1391172 5.86-10.39 0-7.72-7-14-15.5-14-5.4255155-.08775793-10.5188535 2.60605192-13.5 7.14v-4.14c0-1.65685425-1.3431458-3-3-3s-3 1.34314575-3 3v.89c-.4013674 1.2549098-1.2818282 2.30068159-2.45 2.91-2.28 1.33-6.94 2.28-16.24-.75-.52463816-.17079146-1.08847422.11560146-1.26.64-.02451276.12211534-.02451276.24788466 0 .37.20269244 2.809951.8788834 5.5654292 2 8.15.11434902.2460581.32377565.4350877.5802241.5237132.25644845.0886256.5379015.0692383.7797759-.0537132.43836012-.2640295.60665878-.8163944.39-1.28-.82669233-1.912031-1.37558639-3.9324999-1.63-6 3.14739983 1.0152235 6.4240283 1.5742372 9.73 1.66 2.3491026.0891466 4.6784175-.4603505 6.74-1.59.4870054-.28493385.9428257-.62009583 1.36-1v13.45c-.323182-.3639114-.6778954-.6985467-1.06-1-2.38-1.82-6-2.5-10.08-1.93-.5522847.0773199-.93731986.5877153-.86 1.14.0773199.5522847.5877153.9373199 1.14.86 3.58-.5 6.63.05 8.58 1.54 1.273904.9664226 2.0975642 2.4114405 2.28 4v1.1c-1.5452001-.2423615-3.0874502.4522397-3.93 1.77-.5988305.8953782-.8112282 1.9944328-.5891297 3.0484595s.8599191 1.9739281 1.7691297 2.5515405l2.75 1.75v13.25h-15c-.55228475 0-1 .4477153-1 1s.44771525 1 1 1h15v6c0 1.6568542 1.3431458 3 3 3s3-1.3431458 3-3v-6h4.87l.37 5.56c.1458765 1.9329285 1.7516013 3.4298643 3.69 3.44 1.9207265-.0079188 3.5196278-1.4768282 3.69-3.39l.71-8.61h.16l.71 8.62c.1572783 1.932237 1.7793204 3.4154622 3.7178838 3.3997015 1.9385633-.0157606 3.5362751-1.5251627 3.6621162-3.4597015v-.64c.1325955.0566334.2758698.0839237.42.08h6c.5522847 0 1-.4477153 1-1s-.4477153-1-1-1h-6c-.0864065-.0094962-.1735935-.0094962-.26 0l.26-3h9c.5522847 0 1-.4477153 1-1s-.4477153-1-1-1zm-5.48-18.18c1.1837756 2.8276828 2.0166469 5.7897495 2.48 8.82.1047433.5300012-.0093856 1.0798335-.3164125 1.5243634-.307027.4445298-.7808333.7459409-1.3135875.8356366-.8041542.1676908-1.6290704-.1733803-2.08-.86l-1.89-7c-.0701124-.2560417-.2391555-.4736979-.4698766-.6050026-.230721-.1313046-.5041836-.165481-.7601234-.0949974-.5282319.1461291-.8404156.6902208-.7 1.22l1.93 7.08c-.0041287.0365504-.0041287.0734496 0 .11-.3736891.8389534-.9429035 1.576189-1.66 2.15-1.7767186 1.1988688-3.8575258 1.8681951-6 1.93h-.27c-.63 0-1.29 0-1.93 0h-.12c-2.1498996-.0803128-4.2318926-.7743105-6-2-.0711017-.051232-.1379826-.1080807-.2-.17-1.4320438-1.1612994-2.2506541-2.9165179-2.22-4.76.0104125-.7436492.0975407-1.4842387.26-2.21l2.39-2c.4197364-.3589851.4689851-.9902636.11-1.41s-.9902636-.4689851-1.41-.11l-3.86 3.28c-.4155301.3450364-.9529458.5073432-1.49.45v-4.74c.2198565-.0085719.4307489-.089414.6-.23l3.5-3c.3082072.270202.6432905.5081112 1 .71.5313294.2819286 1.0911469.506526 1.67.67.0894112.0145589.1805888.0145589.27 0 .3572656.0482309.7131235-.0978009.9335254-.3830866.2204019-.2852856.2718637-.6664835.135-1-.1368636-.3335165-.4412598-.5686825-.7985254-.6169134-.4197891-.0939725-.8286582-.2313794-1.22-.41-.79-.43-1.2-.9-1.22-1.41.026072-.5258151.3532745-.989352.84-1.19 4.928524 2.1686493 10.5375696 2.1867664 15.48.05.4564821.1892203.7690497.6175537.81 1.11-.0026138.1208898-.0298342.2399792-.08.35-.5630342.8160877-1.4256125 1.3767635-2.4 1.56-.5522847.0773199-.9373199.5877153-.86 1.14s.5877153.9373199 1.14.86c.0927618.0146074.1872382.0146074.28 0 1.2369193-.3183011 2.3531117-.9928847 3.21-1.94.9979781.4654872 1.7911671 1.2800176 2.23 2.29zm1.48-16.61c.0049725.0699117.0049725.1400883 0 .21-.19 3.14-6 5.58-13.5 5.58s-13.31-2.44-13.5-5.58c-.0049725-.0699117-.0049725-.1400883 0-.21 0-3.37 6.23-6.21 13.5-6.21s13.5 2.84 13.5 6.21zm-24.13 12.45c.0144527.2271626.0547118.4519423.12.67l-3 2.58v-9.28c1.0028394 1.4753754 2.2958114 2.7309192 3.8 3.69-.6345078.607661-.9707621 1.4629166-.92 2.34zm18.07-3.34c-4.7017051 2.2328444-10.1582949 2.2328444-14.86 0-1.7865134-.8805846-3.3131858-2.2108228-4.43-3.86 2.73 1.59 6.88 2.54 11.85 2.54s9.11-.95 11.87-2.54c-1.1192253 1.6470408-2.6452728 2.9767347-4.43 3.86zm-7.44-21.32c5.1790843-.13020308 9.9842201 2.68700154 12.4 7.27-2.8-1.99-7.26-3.27-12.4-3.27s-9.6 1.28-12.4 3.27c2.4157799-4.58299846 7.2209157-7.40020308 12.4-7.27zm-21.17 30.29c-.4444856-.2902055-.7553669-.7452109-.8641574-1.2647793s-.0065646-1.0610728.2841574-1.5052207c.4775864-.7513549 1.4052821-1.0812023 2.25-.8v4.65zm5.67 24.71c0 .5522847-.4477153 1-1 1-.2687063-.0037358-.5246007-.1154643-.71-.31-.1890372-.1792338-.2942364-.4295353-.29-.69v-54c0-.55228475.4477153-1 1-1 .2687063.00373577.5246007.11546434.71.31.1890372.17923381.2942364.42953526.29.69zm2-8v-10h.18c.6353876-.0098744 1.2592795-.1709893 1.82-.47v.47c-.0585057 2.2606221.8424714 4.4404054 2.48 6l.26 4zm10.08 8.55c-.3144127.2871838-.7241787.4475271-1.15.45-.8920383.0018915-1.6319402-.6898512-1.69-1.58l-.66-9.91c1.4895315.7348145 3.0979356 1.1987121 4.75 1.37l-.71 8.56c-.0326247.4251182-.2256677.8219287-.54 1.11zm7.81.45c-.4258213-.0024729-.8355873-.1628162-1.15-.45-.3120735-.2856014-.5049133-.6784232-.54-1.1l-.71-8.57c1.6398139-.1493297 3.2424848-.5753562 4.74-1.26l-.65 9.8c-.0580598.8901488-.7979617 1.5818915-1.69 1.58z"/><path id="Shape" d="m31 55h-1c-.5522847 0-1 .4477153-1 1s.4477153 1 1 1h1c.5522847 0 1-.4477153 1-1s-.4477153-1-1-1z"/><path id="Shape" d="m6 55h-2c-.55228475 0-1 .4477153-1 1s.44771525 1 1 1h2c.55228475 0 1-.4477153 1-1s-.44771525-1-1-1z"/><path id="Shape" d="m18 55h-8c-.55228475 0-1 .4477153-1 1s.44771525 1 1 1h8c.5522847 0 1-.4477153 1-1s-.4477153-1-1-1z"/><path id="Shape" d="m45.41 33h-3c-1.1045695 0-2 .8954305-2 2v2c0 1.1045695.8954305 2 2 2h3c1.1045695 0 2-.8954305 2-2v-2c0-1.1045695-.8954305-2-2-2zm0 4h-3v-2h3z"/><path id="Shape" d="m37.9 11.14c-.5522847.0276142-.9776142.4977153-.95 1.05.0276143.5522847.4977153.9776142 1.05.95h.1c.9-.14 1.9-.14 2.9-.14.5522847 0 1-.4477153 1-1s-.4477153-1-1-1c-1.09 0-2.13.05-3.1.14z"/><path id="Shape" d="m33.67 12c-.8724693.2595403-1.6824746.6951734-2.38 1.28-.3746537.3875966-.3746537 1.0024034 0 1.39.1819783.2019271.4383183.321071.71.33.2526349-.0008725.4955769-.0973348.68-.27.4940033-.3679554 1.0492337-.6455706 1.64-.82.5274319-.1794926.8094925-.7525681.63-1.28-.1794926-.5274319-.7525681-.8094925-1.28-.63z"/><path id="Shape" d="m7.23 20c-.55228475 0-1-.4477153-1-1s.44771525-1 1-1 1 .4477153 1 1-.44771525 1-1 1z"/></g></g></g></svg>