<svg height="512" viewBox="0 0 60 60" width="512" xmlns="http://www.w3.org/2000/svg" xmlns:xlink="http://www.w3.org/1999/xlink"><linearGradient id="linearGradient-1" x1="15.504%" x2="84.475%" y1="10.78%" y2="89.275%"><stop offset="0" stop-color="#d3dff2"/><stop offset=".17" stop-color="#d3dff2"/><stop offset=".2" stop-color="#d3dff2"/><stop offset=".2" stop-color="#dae2f2"/><stop offset=".2" stop-color="#ebeaf2"/><stop offset=".2" stop-color="#f6eff2"/><stop offset=".2" stop-color="#fdf2f2"/><stop offset=".2" stop-color="#fff3f2"/><stop offset=".25" stop-color="#fff3f2"/><stop offset=".26" stop-color="#fff3f2"/><stop offset=".26" stop-color="#d3dff2"/><stop offset=".4" stop-color="#d3dff2"/><stop offset=".42" stop-color="#d3dff2"/><stop offset=".42" stop-color="#dae2f2"/><stop offset=".42" stop-color="#ebeaf2"/><stop offset=".42" stop-color="#f6eff2"/><stop offset=".42" stop-color="#fdf2f2"/><stop offset=".42" stop-color="#fff3f2"/><stop offset=".49" stop-color="#fff3f2"/><stop offset=".5" stop-color="#fff3f2"/><stop offset=".5" stop-color="#f8f0f2"/><stop offset=".5" stop-color="#e7e8f2"/><stop offset=".5" stop-color="#dce3f2"/><stop offset=".5" stop-color="#d5e0f2"/><stop offset=".5" stop-color="#d3dff2"/><stop offset=".71" stop-color="#d3dff2"/><stop offset=".74" stop-color="#d3dff2"/><stop offset=".74" stop-color="#fff3f2"/><stop offset=".83" stop-color="#fff3f2"/><stop offset=".85" stop-color="#fff3f2"/><stop offset=".85" stop-color="#d3dff2"/></linearGradient><g id="008---Astronaut" fill="none"><g id="Icons_copy" transform="translate(14 1)"><path id="Shape" d="m33.79 12.41v.51c-.0281552.2973573-.0816835.5917629-.16.88-.85 3.2-3.89 5.32-7.45 5.52-1.1068091.0754674-2.2184793-.0326586-3.29-.32-4.81-1.27-7.81-5.66-6.71-9.81s5.88-6.47 10.68-5.19c4.28 1.13 7.14 4.72 6.93 8.41z" fill="url(#linearGradient-1)"/><path id="Shape" d="m26.86 4c-1.3465543-.35765053-2.7520602-.43592325-4.13-.23.3803296.05741888.7574855.13418513 1.13.23 4.28 1.14 7.12 4.73 6.93 8.42v.51c-.0281552.2973573-.0816835.5917629-.16.88-.9146166 2.9768061-3.5302312 5.1111161-6.63 5.41.7174998.1125899 1.4451862.1461238 2.17.1 3.56-.2 6.6-2.32 7.45-5.52.0783165-.2882371.1318448-.5826427.16-.88 0-.17 0-.34 0-.51.22-3.69-2.64-7.28-6.92-8.41z" fill="#a4c2f7"/><path id="Shape" d="m33.79 12.41c.21-3.69-2.65-7.28-6.93-8.41-4.8-1.27-9.59 1.06-10.68 5.2s1.9 8.54 6.71 9.81c1.055461.2818811 2.149789.3899628 3.24.32 2.21 5.17 5.51 14.33 5.12 20-.1630451 1.4051619-1.285518 2.5054968-2.6936485 2.640523s-2.7192497-.7319506-3.1463515-2.080523l-1.32-4.56-1.25.36c-.3726949.2246999-.7682585.4090727-1.18.55-2.5245662.8201456-5.2180196.9751397-7.82.45-3.3227758-.4381978-6.44813747-1.8272474-9-4v-.23c-.56948929-4.0357978.12941149-8.1488289 2-11.77 0 0-4.92-9-3.62-17.42.28691416-1.57619289 1.73092311-2.67167992 3.32613519-2.52334862s2.81248247 1.49127825 2.80386481 3.09334862c-.14867211 2.81173867.7251216 5.58230417 2.46 7.8-.0141879-.598984.0668206-1.1964218.24-1.77.2310601-1.40293715.6585937-2.7663319 1.27-4.05 2-4.12 6.62-6.09 11-5.71 6.12.46 10 6.46 9.47 12.3z" fill="#e8edfc"/><path id="Shape" d="m22.89 19c-4.81-1.27-7.81-5.66-6.71-9.81.8989573-2.95834795 3.4762881-5.09497487 6.55-5.43-4.4-.66-8.55 1.61-9.55 5.43-1.1 4.15 1.9 8.54 6.71 9.81 1.055461.2818811 2.149789.3899628 3.24.32 2.21 5.17 5.51 14.33 5.12 20-.0632784.980808-.6157316 1.8639815-1.47 2.35.8885584.5044841 1.9727891.5220264 2.8772028.0465517.9044136-.4754747 1.5046354-1.3785793 1.5927972-2.3965517.39-5.62-2.91-14.78-5.12-20-1.090211.0699628-2.184539-.0381189-3.24-.32z" fill="#cad9fc"/><path id="Shape" d="m24.36.05c-.8760666-.07341354-1.7573568-.05665897-2.63.05 2.9744231.4033472 5.6103475 2.12147062 7.18 4.68 2.9845413 1.36356937 4.8938033 4.34874758 4.88 7.63.53-5.84-3.35-11.84-9.43-12.36z" fill="#cad9fc"/><path id="Shape" d="m11.84 11.63v-.05" fill="#e8edfc"/><path id="Shape" d="m22 45c.0949399 2.0482261-.2459025 4.0932801-1 6-.5749171 1.5447781-1.8742373 2.7069654-3.4733162 3.1067351-1.5990789.3997698-3.2924496-.0142448-4.5266838-1.1067351-.6045063-.8620418-.9513354-1.8782511-1-2.93-.1885804-1.5423682-.2587856-3.096912-.21-4.65-.689207 1.0884963-1.6510058 1.9779016-2.79 2.58-2 1-7 0-8-3-.88-2.65 2.92-10.78 3.81-12.63v.23c2.55186253 2.1727526 5.6772242 3.5618022 9 4 2.6019804.5251397 5.2954338.3701456 7.82-.45.273249 2.9418223.3967418 5.8956357.37 8.85z" fill="#e8edfc"/><path id="Shape" d="m21.66 36.18c-.9503632.3338684-1.9374657.5521053-2.94.65.16 1.78.28 4.39.28 8.2.0949399 2.0482261-.2459025 4.0932801-1 6-.5635276 1.403475-1.7038959 2.4964798-3.13 3 2 .6 4.66.19 6.13-3 .7540975-1.9067199 1.0949399-3.9517739 1-6 .0367149-2.9538556-.0767649-5.9076679-.34-8.85z" fill="#cad9fc"/><path id="Shape" d="m9 48c-.03670521 1.4341104-.76868562 2.7607455-1.96232841 3.5565074s-2.69975994.9611918-4.03767159.4434926c-3-1-2-7-2-7 1 3 6 4 8 3z" fill="#a4c2f7"/><path id="Shape" d="m21 51s-.39 7.88-6 6.89c-5.27-.92-3.28-7.08-3-7.81.0505374 1.0483064.3972807 2.060797 1 2.92 1.2342342 1.0924903 2.9276049 1.5065049 4.5266838 1.1067351 1.5990789-.3997697 2.8983991-1.561957 3.4733162-3.1067351z" fill="#a4c2f7"/><path id="Shape" d="m16.24 24.34 2 .5c.4571833.1128155.7737136.5293028.76 1v1.94c.0091729.3125741-.1284007.611443-.3718172.8077466-.2434165.1963037-.564647.267438-.8681828.1922534l-2-.5c-.4571833-.1128155-.7737136-.5293028-.76-1v-1.97c.0002375-.307341.1417889-.597502.3838627-.7868662s.557779-.2568957.8561373-.1831338z" fill="#e8edfc"/></g><path id="Shape" d="m3 52c.99327586.3302037 2.06672414.3302037 3.06 0h-.06c-3-1-2-7-2-7-.88-2.65 2.92-10.78 3.81-12.63-.56948929-4.0357978.12941149-8.1488289 2-11.77 0 0-4.92-9-3.62-17.42.15054448-.93347834.73236329-1.74135414 1.57-2.18-.4533047-.26094313-.96695591-.39883607-1.49-.4-1.51216302-.00532807-2.80452685 1.08788461-3.05 2.58-1.3 8.39 3.62 17.42 3.62 17.42-1.87058851 3.6211711-2.56948929 7.7342022-2 11.77-.89 1.85-4.69 10-3.81 12.63-.03 0-1.03 6 1.97 7z" fill="#fff" transform="translate(14 1)"/><g id="Layer_2" transform="translate(0 -1)"><path id="Shape" d="m18.51 13-2 .39c-.568616-2.7296374-.6734152-5.53555178-.31-8.3l2 .31c-.3262039 2.53267897-.2213904 5.1023018.31 7.6z" fill="#fff"/><g fill="#428dff"><path id="Shape" d="m3 9h1v1c0 .5522847.44771525 1 1 1s1-.4477153 1-1v-1h1c.55228475 0 1-.44771525 1-1s-.44771525-1-1-1h-1v-1c0-.55228475-.44771525-1-1-1s-1 .44771525-1 1v1h-1c-.55228475 0-1 .44771525-1 1s.44771525 1 1 1z"/><path id="Shape" d="m54 9h1v1c0 .5522847.4477153 1 1 1s1-.4477153 1-1v-1h1c.5522847 0 1-.44771525 1-1s-.4477153-1-1-1h-1v-1c0-.55228475-.4477153-1-1-1s-1 .44771525-1 1v1h-1c-.5522847 0-1 .44771525-1 1s.4477153 1 1 1z"/><path id="Shape" d="m9 28h1v1c0 .5522847.4477153 1 1 1s1-.4477153 1-1v-1h1c.5522847 0 1-.4477153 1-1s-.4477153-1-1-1h-1v-1c0-.5522847-.4477153-1-1-1s-1 .4477153-1 1v1h-1c-.55228475 0-1 .4477153-1 1s.44771525 1 1 1z"/><path id="Shape" d="m1 52h2c.55228475 0 1-.4477153 1-1s-.44771525-1-1-1h-2c-.55228475 0-1 .4477153-1 1s.44771525 1 1 1z"/><path id="Shape" d="m59 50h-22.21c.1402653-.993838.2104385-1.9963127.21-3 0-3.37-.09-6.13-.28-8.21.4-.19.64-.34.68-.36l1 3.63c.5498118 1.8270212 2.3134638 3.0113948 4.2126835 2.8290114 1.8992198-.1823835 3.4052466-1.6807468 3.5973165-3.5790114.0773762-1.4766503.0070269-2.9573372-.21-4.42-.75-5.27-3.17-11.66-4.43-14.74.8660749-.1610043 1.706816-.4367674 2.5-.82 4-1.94 5.32-5.64 4.59-10.11-.94-5.64-5.04-9.72-10.21-10.17s-10 2.08-12 6.28c-.517786 1.08525121-.9103144 2.22593188-1.17 3.4-.6697189-1.55037821-.9775037-3.23293473-.9-4.92.0384965-1.08987121-.369668-2.14820942-1.13-2.93-.7829861-.80315152-1.8583487-1.25422643-2.98-1.25-1.9965073.00111507-3.6943621 1.45702558-4 3.43-.0401398.26261712.0258707.53041285.1834641.74428962s.3938153.35625354.6565359.39571038c.5435979.08393996 1.0529357-.28689372 1.14-.83.1309156-.77947798.6903544-1.4184215 1.4457061-1.65116293s1.5773807-.01946025 2.1242939.55116293c.3832711.39127854.5893021.92262168.57 1.47-.1567769 3.07121362.8061423 6.0949932 2.71 8.51.3434539.4289082.9686301.5003569 1.4.16.3355311-.2662674.4642153-.7166621.32-1.12.2421145-1.7505799.7127955-3.46184173 1.4-5.09 1.67-3.46 5.72-5.53 10.06-5.2 2.5334512.22829114 4.8413314 1.55020986 6.32 3.62-1.0579286-.7365908-2.2352787-1.28466754-3.48-1.62-2.4724253-.68409173-5.1080544-.46061308-7.43.63-2.1971092 1.01557624-3.8357573 2.94684005-4.48 5.28-.5974001 2.3445041-.128947 4.8331613 1.28 6.8 1.4674667 2.1185647 3.6459749 3.640682 6.14 4.29.9306252.2440628 1.8879392.3717047 2.85.38 1.13 2.71 3.76 9.42 4.53 14.82.2163073 1.3216479.2967267 2.6619701.24 4-.093406 1.0337275-.9620696 1.8242114-2 1.82-.896405-.0095238-1.6769721-.6143611-1.91-1.48l-3.34-11.79c-.1000344-.342975-.3754449-.6065292-.7224871-.6913844s-.7129922.0218802-.96.28c-.2470079.2581198-.3375473.6284094-.2375129.9713844l1.83 6.34c-.2026441-.0087233-.4036489.0397951-.58.14 0 0-2.82 1.77-8.29.86-3.0012559-.4322457-5.8360618-1.6461772-8.22-3.52-.4894504-3.7765119.1801226-7.6126071 1.92-11 .1786328-.3094011.1786328-.6905989 0-1-1.4872922-2.8820947-2.5740004-5.9538117-3.23-9.13-.1059177-.5360127-.6224442-.887785-1.16-.79-.2654592.0460338-.5011126.1972354-.6535876.4193594-.1524749.222124-.20887.4963758-.1564124.7606406.6579129 3.2040242 1.7267481 6.3096964 3.18 9.24-1.7387073 3.6098948-2.4083885 7.6418613-1.93 11.62-1.79 3.69-4.44 9.95-3.79 12.8-.1409567.9933775-.1844969 1.9981528-.13 3h-6.87c-.55228475 0-1 .4477153-1 1s.44771525 1 1 1h7.17c.2817412 1.3456126 1.2268676 2.4564186 2.51 2.95.6088677.205756 1.2473063.3104734 1.89.31 1.1676007.0157479 2.3109184-.3338905 3.27-1 1.2232254-.852033 2.0124301-2.196604 2.16-3.68.2917153-.1745894.5692387-.3718651.83-.59 0 .72.09 1.37.16 2-.37 1.17-1.14 4.27.22 6.56.7997335 1.2969202 2.1471881 2.1584075 3.66 2.34.3740557.0543481.7522923.0744315 1.13.06 1.1373134.0157686 2.2444113-.3662332 3.13-1.08 2.63-2.1 2.9-6.58 2.92-6.84.1430775-.3268639.2698991-.660605.38-1h22.57c.5522847 0 1-.4477153 1-1s-.4477153-1-1-1zm-26.86-33.39c-1.0755093-1.4894326-1.4412439-3.376623-1-5.16.4954505-1.77501291 1.7513312-3.23959676 3.43-4 1.1357203-.54505434 2.3802716-.82542029 3.64-.82.8103816.00375618 1.6169445.11129791 2.4.32 4.52 1.2 6.89 5.22 6 8.59-.4932397 1.7730236-1.7451534 3.2372503-3.42 4-.9407769.452996-1.9585814.7244106-3 .8h-.06c-1.0096544.0634817-2.0229094-.0378438-3-.3-2.0189049-.5122133-3.7885136-1.7285977-4.99-3.43zm-11.47 36c-.976388.6875273-2.2267886.8554915-3.35.45-1.05-.35-1.4-1.87-1.47-3.33.5133157.4009006 1.0742391.7367829 1.67 1 1.1177751.4562793 2.3126994.6939063 3.52.7h.66c-.2368084.4803507-.5910968.893114-1.03 1.2zm1.88-3.49c-1.407521.4289635-2.9235984.3257563-4.26-.29-1.0169981-.3651505-1.8429998-1.1262263-2.29-2.11-.44-1.33.81-5.49 3.15-10.58 2.5455122 1.8204536 5.4855659 3.012923 8.58 3.48 1.1199592.1908488 2.2538982.2878524 3.39.29 1.2455166.0052198 2.4873428-.1357442 3.7-.42.15 2 .23 4.48.23 7.54.0576502 1.9060065-.2829375 3.8030802-1 5.57-.4853832 1.3313691-1.6165581 2.3230324-3 2.63-1.1932808.208852-2.4175772-.1247138-3.34-.91-.12-.11-.51-.62-.75-2.36-.1812953-1.4927074-.2481569-2.9970947-.2-4.5 0-2.33.23-4.31.24-4.33.0357266-.3572656-.1218597-.7064525-.4133975-.9160254s-.6727356-.2476927-1-.1c-.3272643.1476927-.5508759.4587598-.5866025.8160254 0 .08-.18 1.92-.23 4.2-.5664788.8397448-1.3282766 1.5294806-2.22 2.01zm9.27 9.22c-.7516137.5811188-1.7259224.7906871-2.65.57-.9317801-.0926636-1.7708053-.6041746-2.28-1.39-.2880716-.5182539-.4491446-1.0974315-.47-1.69 1.1000195.9337519 2.4971153 1.4443656 3.94 1.44.9643015-.0067649 1.9121391-.2505927 2.76-.71-.2850456.6942762-.7305493 1.3111275-1.3 1.8z"/><path id="Shape" d="m43 57c.5522847 0 1-.4477153 1-1s-.4477153-1-1-1h-1c-.5522847 0-1 .4477153-1 1s.4477153 1 1 1z"/><path id="Shape" d="m53 55h-6c-.5522847 0-1 .4477153-1 1s.4477153 1 1 1h6c.5522847 0 1-.4477153 1-1s-.4477153-1-1-1z"/><path id="Shape" d="m6 55h-2c-.55228475 0-1 .4477153-1 1s.44771525 1 1 1h2c.55228475 0 1-.4477153 1-1s-.44771525-1-1-1z"/><path id="Shape" d="m14 57c.5522847 0 1-.4477153 1-1s-.4477153-1-1-1h-4c-.55228475 0-1 .4477153-1 1s.44771525 1 1 1z"/><path id="Shape" d="m17.06 10.2c-.5522847 0-1-.44771525-1-1s.4477153-1 1-1 1 .44771525 1 1-.4477153 1-1 1z"/><path id="Shape" d="m27 33.86c-.0852582.5337594.2690589 1.0386612.8 1.14 1.8559827.3545327 3.7404932.5386323 5.63.55.5522847 0 1-.4477153 1-1s-.4477153-1-1-1c-1.7683412-.0128747-3.5320046-.1835518-5.27-.51-.2627221-.046332-.5330659.014233-.7509094.1682258-.2178434.1539928-.365125.3886458-.4090906.6517742z"/><path id="Shape" d="m21.72 32.45c.551652.5050151 1.1793267.9200903 1.86 1.23.1401653.0679235.2942591.1021666.45.1.3787855-.0030355.7233412-.2198346.89-.56.2454836-.4943143.0440809-1.0940469-.45-1.34-.4741947-.2124424-.9153763-.4919697-1.31-.83-.3865993-.397645-1.022355-.4065993-1.42-.02s-.4065993 1.022355-.02 1.42z"/><path id="Shape" d="m37.83 25.48c.5333335.0006671.9733337-.4173332 1-.95.028425-.5488369-.3913739-1.0177612-.94-1.05-8.09-.45-9.64-5.74-9.7-6-.1380712-.5357162-.6842838-.8580712-1.22-.72s-.8580712.6842838-.72 1.22c.08.29 1.91 6.94 11.53 7.47z"/><path id="Shape" d="m29.52 31.19 2 .5c.1569831.039347.3181617.0594944.48.06.4447027-.0028804.876409-.1502923 1.23-.42.4867367-.379622.7709087-.9627281.77-1.58v-1.94c-.0007104-.9191073-.6277552-1.7194145-1.52-1.94l-2-.5c-.5967167-.1475239-1.2281269-.0124608-1.7122745.3662676-.4841477.3787284-.7672505.9590505-.7677255 1.5737324v1.94c.0007104.9191073.6277552 1.7194145 1.52 1.94zm2.48-3.38v1.94l-2-.5v-1.94z"/><path id="Shape" d="m40 9c0-.55228475-.4477153-1-1-1-2.08 0-6 1-6 5 0 .5522847.4477153 1 1 1s1-.4477153 1-1c0-2.93 3.82-3 4-3 .5522847 0 1-.44771525 1-1z"/></g></g></g></svg>