<svg height="512" viewBox="0 0 60 61" width="512" xmlns="http://www.w3.org/2000/svg"><g id="008---Astronaut" transform="translate(0 -1)"><path id="Shape" d="m3 9h1v1c0 .5522847.44771525 1 1 1s1-.4477153 1-1v-1h1c.55228475 0 1-.44771525 1-1s-.44771525-1-1-1h-1v-1c0-.55228475-.44771525-1-1-1s-1 .44771525-1 1v1h-1c-.55228475 0-1 .44771525-1 1s.44771525 1 1 1z"/><path id="Shape" d="m54 9h1v1c0 .5522847.4477153 1 1 1s1-.4477153 1-1v-1h1c.5522847 0 1-.44771525 1-1s-.4477153-1-1-1h-1v-1c0-.55228475-.4477153-1-1-1s-1 .44771525-1 1v1h-1c-.5522847 0-1 .44771525-1 1s.4477153 1 1 1z"/><path id="Shape" d="m9 28h1v1c0 .5522847.4477153 1 1 1s1-.4477153 1-1v-1h1c.5522847 0 1-.4477153 1-1s-.4477153-1-1-1h-1v-1c0-.5522847-.4477153-1-1-1s-1 .4477153-1 1v1h-1c-.55228475 0-1 .4477153-1 1s.44771525 1 1 1z"/><path id="Shape" d="m1 52h2c.55228475 0 1-.4477153 1-1s-.44771525-1-1-1h-2c-.55228475 0-1 .4477153-1 1s.44771525 1 1 1z"/><path id="Shape" d="m59 50h-22.21c.2821718-3.7323313.2587605-7.4814836-.07-11.21.4-.19.64-.34.68-.36l1 3.63c.5498118 1.8270212 2.3134638 3.0113948 4.2126835 2.8290114 1.8992198-.1823835 3.4052466-1.6807468 3.5973165-3.5790114.39-5.54-2.59-14.06-4.69-19.19 5-1 8.08-4.82 7.09-10.93-.89-5.61-4.99-9.69-10.16-10.14s-10 2.08-12 6.28c-.517786 1.08525121-.9103144 2.22593188-1.17 3.4-.6697189-1.55037821-.9775037-3.23293473-.9-4.92.0282095-2.13366773-1.588663-3.93047706-3.7134728-4.12673413-2.1248099-.19625707-4.0434431 1.27399694-4.4065272 3.37673413-1.18 7.6 2.46 15.52 3.48 17.56-1.7352504 3.6037759-2.401545 7.6293062-1.92 11.6-1.82 3.78-4.47 9.98-3.82 12.83-.1409567.9933775-.1844969 1.9981528-.13 3h-6.87c-.55228475 0-1 .4477153-1 1s.44771525 1 1 1h7.17c.2817412 1.3456126 1.2268676 2.4564186 2.51 2.95 1.5529264.5966988 3.2938621.4471706 4.7222946-.4055957 1.4284325-.8527664 2.3861106-2.314296 2.5977054-3.9644043.2917153-.1745894.5692387-.3718651.83-.59 0 .72.09 1.37.16 2-2.67 8.46 4.73 10.63 8.13 7.92 2.63-2.1 2.9-6.58 2.92-6.84.1430775-.3268639.2698991-.660605.38-1h22.58c.5522847 0 1-.4477153 1-1s-.4477153-1-1-1zm-15.81-30.47c-3.8967941 1.7384445-8.4784385.5222262-11-2.92-3.78-5.45 1.66-11.44 8.42-9.61s8.47 9.66 2.58 12.53zm-21.49 3.62c.1786328-.3094011.1786328-.6905989 0-1 0-.08-4.75-8.82-3.51-16.78.1376537-.774944.697085-1.40785414 1.4492634-1.6396178s1.5708056-.02346537 2.1207366.5396178c.3832711.39127854.5893021.92262168.57 1.47-.1510264 3.07353493.8111348 6.0984845 2.71 8.52.3016091.4147221.8680449.5340875 1.311363.2763444.4433182-.2577431.6198266-.8090528.408637-1.2763444 0-.35.21-1.08.25-1.31.2282314-1.2998778.635435-2.56187251 1.21-3.75 2.69-5.55 11.89-7.56 16.38-1.58-5.76-4-13.8-1.69-15.39 4.32-1.48 5.6 3.55 11.37 10.27 11.41 2 4.89 5.15 13.56 4.77 18.86-.093406 1.0337275-.9620696 1.8242114-2 1.82-.896405-.0095238-1.6769721-.6143611-1.91-1.48l-3.34-11.8c-.1000344-.342975-.3754449-.6065292-.7224871-.6913844s-.7129922.0218802-.96.28c-.2470079.2581198-.3375473.6284094-.2375129.9713844l1.83 6.34c-.2026441-.0087233-.4036489.0397951-.58.14 0 0-2.82 1.77-8.29.86-3.0012559-.4322457-5.8360618-1.6461772-8.22-3.52-.4976098-3.7658923.1578698-7.5941725 1.88-10.98zm-4.38 29.93c-1.05-.35-1.4-1.87-1.47-3.33 1.7000713 1.2092844 3.7695422 1.7859062 5.85 1.63-.80285 1.611714-2.7000629 2.3480752-4.38 1.7zm5.23-3.94c-1.65.86-5.85-.14-6.55-2.42-.44-1.33.81-5.49 3.15-10.58 4.5520302 3.1974881 10.2084808 4.4067485 15.67 3.35.15 2 .23 4.48.23 7.54 0 3.3-.72 7.61-3.95 8.2-1.1932808.208852-2.4175772-.1247138-3.34-.91-1.41-1.32-.97-9.12-.76-11.19.0552285-.5522847-.3477153-1.0447715-.9-1.1s-1.0447715.3477153-1.1.9c0 .08-.18 1.92-.23 4.2-.5664788.8397448-1.3282766 1.5294806-2.22 2.01zm6.62 9.79c-1.589766-.1322147-2.7980285-1.4854687-2.75-3.08 1.8727955 1.5931566 4.5280551 1.882461 6.7.73-.81 1.8-2.04 2.68-3.95 2.35z"/><path id="Shape" d="m43 57c.5522847 0 1-.4477153 1-1s-.4477153-1-1-1h-1c-.5522847 0-1 .4477153-1 1s.4477153 1 1 1z"/><path id="Shape" d="m53 55h-6c-.5522847 0-1 .4477153-1 1s.4477153 1 1 1h6c.5522847 0 1-.4477153 1-1s-.4477153-1-1-1z"/><path id="Shape" d="m6 55h-2c-.55228475 0-1 .4477153-1 1s.44771525 1 1 1h2c.55228475 0 1-.4477153 1-1s-.44771525-1-1-1z"/><path id="Shape" d="m14 57c.5522847 0 1-.4477153 1-1s-.4477153-1-1-1h-4c-.55228475 0-1 .4477153-1 1s.44771525 1 1 1z"/><path id="Shape" d="m33.46 33.59c-1.7683412-.0128747-3.5320046-.1835518-5.27-.51-.3572656-.0696668-.7245594.0565574-.9635254.331125-.238966.2745677-.3132996.6557656-.195 1 .1182996.3442345.4112598.5992082.7685254.668875 1.8602198.3484687 3.7475036.5325123 5.64.55.5522847 0 1-.4477153 1-1s-.4477153-1-1-1z"/><path id="Shape" d="m23.58 33.68c.4970563.2457667 1.0992333.0420563 1.345-.455s.0420563-1.0992333-.455-1.345c-.4741947-.2124424-.9153763-.4919697-1.31-.83-.3865993-.397645-1.022355-.4065993-1.42-.02s-.4065993 1.022355-.02 1.42c.551652.5050151 1.1793267.9200903 1.86 1.23z"/><path id="Shape" d="m37.78 25.47c.5522847.0303757 1.0246243-.3927153 1.055-.945s-.3927153-1.0246243-.945-1.055c-8.09-.45-9.64-5.74-9.7-6-.1380712-.5357162-.6842838-.8580712-1.22-.72s-.8580712.6842838-.72 1.22c.08.32 1.91 6.97 11.53 7.5z"/><path id="Shape" d="m29.52 31.19c.8056157.2700036 1.6365316.4576298 2.48.56 1.1045695 0 2-.8954305 2-2v-1.94c-.0007104-.9191073-.6277552-1.7194145-1.52-1.94l-2-.5c-.5967167-.1475239-1.2281269-.0124608-1.7122745.3662676-.4841477.3787284-.7672505.9590505-.7677255 1.5737324v1.94c.0007104.9191073.6277552 1.7194145 1.52 1.94zm2.48-3.38v1.94l-2-.5v-1.94z"/><path id="Shape" d="m39 8c-2.08 0-6 1-6 5 0 .5522847.4477153 1 1 1s1-.4477153 1-1c0-2.93 3.82-3 4-3 .5522847 0 1-.44771525 1-1s-.4477153-1-1-1z"/></g></svg>