<svg height="512" viewBox="0 0 60 61" width="512" xmlns="http://www.w3.org/2000/svg"><g id="020---Astronaut-Fishing"><path id="Shape" d="m19 9c0 .55228475.4477153 1 1 1 .16 0 4 0 4 3 0 .5522847.4477153 1 1 1s1-.4477153 1-1c0-4-3.92-5-6-5-.5522847 0-1 .44771525-1 1z"/><path id="Shape" d="m51 29.75v-11.12c.87-.26 1.75-.5 2.65-.7 1.1906931-.2516202 2.1114017-1.1976393 2.3306467-2.3947167.2192449-1.1970775-.3064194-2.4080001-1.3306467-3.0652833-.6678543-.4249589-1.4765999-.5687359-2.25-.4-9.3 2.07-18 7.27-25.11 13.45-.1761448-1.5791205-.6440818-3.1117838-1.38-4.52 3.5746563-3.9632187 4.1021749-9.8110384 1.2944806-14.34999451-2.8076943-4.53895612-8.2757394-6.67805744-13.4180635-5.2491516-5.14232425 1.42890584-8.72290978 6.0823646-8.7864171 11.41914611l-1.75.5c-1.92975234.5548876-3.14906694 2.4544514-2.85 4.44l2.35 15.69c.21279217 1.4071175 1.15717708 2.5952146 2.48 3.12l.5.2c-8.41 9.23-1.73 24.23 10.77 24.23 5.0539163-.0266811 9.7309018-2.6776041 12.35-7 .0615307-.0665687.1091303-.1447681.14-.23 2.2585073-3.8174304 2.6275681-8.4639059 1-12.59 0-9.77.06-9-.18-9.94 4.59-4.17 11.28-9.19 19.18-12v10.51l-7.09 13.4c-1.2402796 1.697843-1.9059476 3.7473995-1.9 5.85-.011053 4.3395772 2.778038 8.1909943 6.9044847 9.5343073s8.6483218-.1281106 11.1940478-3.6425568c2.5457259-3.5144461 2.5342001-8.2696863-.0285325-11.7717505zm1.79-15.75c.3921496-.081067.7948462.07962 1.0234601.4083886.228614.3287687.2390565.7622151.0265399 1.1016114-.38.6-.63.27-4.21 1.41-9.08 2.95-16.63 8.73-21.63 13.34-1.48 1.37-3.41 3.41-5 5.14.0884407-.8993232-.0348478-1.806863-.36-2.65 7.67-8.46 18.81-16.21 30.15-18.75zm-38.31 22-4.76-1.12c-1.019982-.3542235-1.70805612-1.3103265-1.72-2.39v-3.41c1.73 2 3.1 2.45 9.21 5.49 1.1990835.6135803 2.6285218.5720926 3.79-.11v9.94c.0276142 1.3807119-1.0692881 2.5223858-2.45 2.55s-2.5223858-1.0692881-2.55-2.45v-6.5c-.0052882-.9153741-.631361-1.7103218-1.52-1.93zm6-11.58c.4461793 1.0074481.700529 2.0892819.75 3.19-.33-.22 0 0-5.39-2.74 1.5533718.1748447 3.1259235.04578 4.63-.38zm-8.61-.67c.3208493 1.026799 1.0417626 1.8810812 2 2.37l6 3c.4754146.2379865.8365087.6554695 1.0035064 1.1602154.1669977.5047458.1261544 1.0552119-.1135064 1.5297846-.4953708.9786313-1.6865246 1.3756826-2.67.89l-6-3c-3.1196318-1.5572336-4.87140353-4.9555898-4.33-8.4l.09-.57c1.09760003 1.3077447 2.4656937 2.3619615 4.01 3.09zm11.13 14.63c1.28-1.44 3.26-3.61 5-5.36v9.53c0 1.3807119-1.1192881 2.5-2.5 2.5s-2.5-1.1192881-2.5-2.5zm.06-9c.3742785-1.9225567.1182633-3.9145658-.73-5.68.7292579-.3618508 1.4195278-.797458 2.06-1.3.5644392 1.5049841.9014733 3.0856742 1 4.69-.75.79-1.54 1.54-2.33 2.34zm2.8-21c1.4157154 2.6741602 1.5335465 5.8482338.32 8.62-.1046183.2294233-.2214524.4530771-.35.67-3.84 2.23-9.3 1.64-12.14-1.06-1.0683359-.8775588-1.6875096-2.1874476-1.6875096-3.57s.6191737-2.6924412 1.6875096-3.57c3-2.87 8.52-3.24 12.17-1.09zm-16.75-1.53c1.6641584-2.13153275 4.1206444-3.49820873 6.8092624-3.78836092s5.3801279.52095872 7.4607376 2.24836092c-3.86-.84-8.27 0-11.07 2.66-6.28 5.93 1 14.89 11 12.72-3.9417467 3.1058399-9.5749473 2.8092055-13.1687028-.6934407-3.59375552-3.5026462-4.03491543-9.1263744-1.0312972-13.1465593zm-4.38 26.3-2.35-15.69c-.15002402-.9913198.45712951-1.9405317 1.42-2.22l1.35-.38c.20268628 1.2529939.59732074 2.4672538 1.17 3.6-.28963199.8195978-.47116213 1.6734618-.54 2.54-.23447529 1.4125944-.15941253 2.8592583.22 4.24v7.25c.00445585.9156811.28692217 1.8084141.81 2.56l-.81-.34c-.67306535-.2537795-1.15800412-.8494524-1.27-1.56zm4.27 11.35c.00186595 1.1887038-.60143196 2.2966178-1.60095064 2.9400326-.99951869.6434149-2.25779702.7338436-3.33904936.2399674-.22371192-2.2947241.1915976-4.6066138 1.2-6.68.97060068-.0727551 1.92731319.2642934 2.63798132.9293571.71066812.6650638 1.11033549 1.5973548 1.10201868 2.5706429zm-4.52 5.39c2.98509907.5357162 5.8392838-1.4499009 6.375-4.435s-1.44990093-5.8392838-4.435-6.375c.67627346-.9169041 1.4773523-1.7348123 2.38-2.43.53.22-.41 0 5.2 1.36v6.49c.0027784 2.1838995 1.5765237 4.049063 3.7288137 4.4192964 2.15229.3702333 4.2588195-.8618553 4.9911863-2.9192964.9128046.7577902 2.0914173 1.1177914 3.2718557.9993716 1.1804385-.1184198 2.264055-.7053644 3.0081443-1.6293716.2011208 2.2259701-.2031335 4.4649165-1.17 6.48-1.8956481-1.2358667-4.3850266-1.0444877-6.0694927.466612-1.6844662 1.5110996-2.1440378 3.9651626-1.1205073 5.983388-3.2560488 1.1454589-6.8410938.891252-9.9029335-.7021931-3.0618398-1.5934451-5.32701351-4.3838136-6.2570665-7.7078069zm17.94 7.62c-.6991527-1.2259695-.4492539-2.7734814.6002484-3.7170706 1.0495023-.9435893 2.6147834-1.028074 3.7597516-.2029294-1.1254401 1.6308296-2.6190798 2.973735-4.36 3.92zm26.64-16.45c1.3263436-.1613863 2.6719392.0175676 3.91.52-.2839747.8451309-1.1123617 1.3835825-2 1.3-1.1 0-2.22-.8-1.91-1.82zm5-1.17c-2.6059888-1.1799577-5.5940112-1.1799577-8.2 0l4.14-7.75zm-12.06 9.11c-.0015496-3.2612754 1.9767163-6.197022 5-7.42.2590424 1.9801892 2.0066679 3.4219802 4 3.3 1.5959626.0454212 3.066079-.8625919 3.74-2.31 1.8572316 1.3504327 3.0446204 3.4338265 3.26 5.72-2.2299287-.9229974-4.8009057-.1214285-6.1111751 1.9053178s-.9858353 4.7001669.7711751 6.3546822c-2.4489976.8634179-5.1647157.4844639-7.2838006-1.0163889-2.1190848-1.5008528-3.377879-3.9368676-3.3761994-6.5336111zm12.6 6.53c-1.0284316-.5171289-1.6702728-1.5771205-1.6519073-2.7281011.0183655-1.1509807.6936987-2.1899549 1.7381056-2.6740087 1.0444069-.4840537 2.273688-.3278158 3.1638017.4021098-.3984388 2.023242-1.5627479 3.8144866-3.25 5z"/><path id="Shape" d="m46.5 45.88c-1.9329966 0-3.5 1.5670034-3.5 3.5s1.5670034 3.5 3.5 3.5 3.5-1.5670034 3.5-3.5-1.5670034-3.5-3.5-3.5zm0 5c-.8284271 0-1.5-.6715729-1.5-1.5s.6715729-1.5 1.5-1.5 1.5.6715729 1.5 1.5-.6715729 1.5-1.5 1.5z"/><path id="Shape" d="m14 49c-2.209139 0-4 1.790861-4 4s1.790861 4 4 4 4-1.790861 4-4-1.790861-4-4-4zm0 6c-1.1045695 0-2-.8954305-2-2s.8954305-2 2-2 2 .8954305 2 2-.8954305 2-2 2z"/><path id="Shape" d="m36 8c-.5522847 0-1 .44771525-1 1v1h-1c-.5522847 0-1 .4477153-1 1s.4477153 1 1 1h1v1c0 .5522847.4477153 1 1 1s1-.4477153 1-1v-1h1c.5522847 0 1-.4477153 1-1s-.4477153-1-1-1h-1v-1c0-.55228475-.4477153-1-1-1z"/><path id="Shape" d="m41 33v1c0 .5522847.4477153 1 1 1s1-.4477153 1-1v-1h1c.5522847 0 1-.4477153 1-1s-.4477153-1-1-1h-1v-1c0-.5522847-.4477153-1-1-1s-1 .4477153-1 1v1h-1c-.5522847 0-1 .4477153-1 1s.4477153 1 1 1z"/><path id="Shape" d="m54 2c-.5522847 0-1 .44771525-1 1v1h-1c-.5522847 0-1 .44771525-1 1s.4477153 1 1 1h1v1c0 .55228475.4477153 1 1 1s1-.44771525 1-1v-1h1c.5522847 0 1-.44771525 1-1s-.4477153-1-1-1h-1v-1c0-.55228475-.4477153-1-1-1z"/></g></svg>