<svg height="512" viewBox="0 0 60 60" width="512" xmlns="http://www.w3.org/2000/svg"><g id="010---Shocked-Astronaut"><path id="Shape" d="m53 47h-2.35c-.4695929-1.3254637-1.3898134-2.4438855-2.6-3.16 5.0629589-4.7573857 7.9391898-11.3926153 7.95-18.34 0-14.06-11.66-25.5-26-25.5s-26 11.44-26 25.5c.02377316 6.9549014 2.91858859 13.5912658 8 18.34-1.2289605.7071311-2.16778864 1.8266394-2.65 3.16h-2.35c-3.86599325 0-7 3.1340068-7 7v5c0 .5522847.44771525 1 1 1h58c.5522847 0 1-.4477153 1-1v-5c0-3.8659932-3.1340068-7-7-7zm-47-21.5c0-12.96 10.77-23.5 24-23.5s24 10.54 24 23.5c-.0191919 6.7560131-2.9711435 13.1707609-8.09 17.58-.9959911-.1106903-1.9995251-.1374512-3-.08 3.7860794-2.375872 6.0860641-6.5301958 6.09-11v-6c-.0000002-10.4934101-8.5065899-18.9999996-19-18.9999996s-18.9999998 8.5065895-19 18.9999996v6c.0060956 4.4717704 2.3100952 8.6265238 6.1 11-1.0004209-.0607912-2.0042408-.0340227-3 .08-5.12257717-4.4073777-8.0782992-10.8223892-8.1-17.58zm7.3-2.62c1.5702517-1.6444389 3.3290815-3.0978231 5.24-4.33.4632328-.2987099.5974116-.9159327.3-1.38-.2987099-.4632328-.9159327-.5974116-1.38-.3-1.0444686.6561357-2.0464624 1.3775712-3 2.16 2.7465714-6.097268 8.8126738-10.01787998 15.5-10.01787998s12.7534286 3.92061198 15.5 10.01787998c-6.74-5.6-14.86-7.55-22.82-4.71-.5219091.1877768-.7927768.7630909-.605 1.285s.7630909.7927768 1.285.605c8.73-3.12 17.25.3 23.36 6.71.43 2.29.3 3.53.3 9.11-.0165054 6.0556157-4.9243718 10.9590122-10.98 10.97h-12c-2.9173814 0-5.7152744-1.1589252-7.7781746-3.2218254s-3.2218254-4.8607932-3.2218254-7.7781746c0-6-.1-7 .3-9.12zm-11.3 31.12c0-2.7614237 2.23857625-5 5-5h2v9h-7zm9-5c0-2.209139 1.790861-4 4-4h30c2.209139 0 4 1.790861 4 4v9h-38zm47 9h-7v-9h2c2.7614237 0 5 2.2385763 5 5z"/><path id="Shape" d="m44 47h-10c-1.1045695 0-2 .8954305-2 2v6c0 1.1045695.8954305 2 2 2h10c1.1045695 0 2-.8954305 2-2v-6c0-1.1045695-.8954305-2-2-2zm-7 2v2h-3v-2zm-3 6v-2h3c1.1045695 0 2-.8954305 2-2v-2h5v6z"/><path id="Shape" d="m16 49h-1c-.5522847 0-1 .4477153-1 1s.4477153 1 1 1h1c.5522847 0 1-.4477153 1-1s-.4477153-1-1-1z"/><path id="Shape" d="m25 49h-5c-.5522847 0-1 .4477153-1 1s.4477153 1 1 1h5c.5522847 0 1-.4477153 1-1s-.4477153-1-1-1z"/><path id="Shape" d="m16 53h-1c-.5522847 0-1 .4477153-1 1s.4477153 1 1 1h1c.5522847 0 1-.4477153 1-1s-.4477153-1-1-1z"/><path id="Shape" d="m25 53h-5c-.5522847 0-1 .4477153-1 1s.4477153 1 1 1h5c.5522847 0 1-.4477153 1-1s-.4477153-1-1-1z"/><path id="Shape" d="m26 35c0 2.209139 1.790861 4 4 4s4-1.790861 4-4-1.790861-4-4-4-4 1.790861-4 4zm4-2c1.1045695 0 2 .8954305 2 2s-.8954305 2-2 2-2-.8954305-2-2 .8954305-2 2-2z"/><path id="Shape" d="m21 27h6c.5522847 0 1-.4477153 1-1s-.4477153-1-1-1v-2c0-1.6568542-1.3431458-3-3-3s-3 1.3431458-3 3v2c-.5522847 0-1 .4477153-1 1s.4477153 1 1 1zm2-4c0-.5522847.4477153-1 1-1s1 .4477153 1 1v2h-2z"/><path id="Shape" d="m33 27h6c.5522847 0 1-.4477153 1-1s-.4477153-1-1-1v-2c0-1.6568542-1.3431458-3-3-3s-3 1.3431458-3 3v2c-.5522847 0-1 .4477153-1 1s.4477153 1 1 1zm2-4c0-.5522847.4477153-1 1-1s1 .4477153 1 1v2h-2z"/></g></svg>