<svg height="512" viewBox="0 0 60 60" width="512" xmlns="http://www.w3.org/2000/svg" xmlns:xlink="http://www.w3.org/1999/xlink"><linearGradient id="linearGradient-1" x1="15%" x2="85.52%" y1="16.158%" y2="97.508%"><stop offset="0" stop-color="#d3dff2"/><stop offset=".17" stop-color="#d3dff2"/><stop offset=".2" stop-color="#d3dff2"/><stop offset=".2" stop-color="#dae2f2"/><stop offset=".2" stop-color="#ebeaf2"/><stop offset=".2" stop-color="#f6eff2"/><stop offset=".2" stop-color="#fdf2f2"/><stop offset=".2" stop-color="#fff3f2"/><stop offset=".25" stop-color="#fff3f2"/><stop offset=".26" stop-color="#fff3f2"/><stop offset=".26" stop-color="#d3dff2"/><stop offset=".4" stop-color="#d3dff2"/><stop offset=".42" stop-color="#d3dff2"/><stop offset=".42" stop-color="#dae2f2"/><stop offset=".42" stop-color="#ebeaf2"/><stop offset=".42" stop-color="#f6eff2"/><stop offset=".42" stop-color="#fdf2f2"/><stop offset=".42" stop-color="#fff3f2"/><stop offset=".49" stop-color="#fff3f2"/><stop offset=".5" stop-color="#fff3f2"/><stop offset=".5" stop-color="#f8f0f2"/><stop offset=".5" stop-color="#e7e8f2"/><stop offset=".5" stop-color="#dce3f2"/><stop offset=".5" stop-color="#d5e0f2"/><stop offset=".5" stop-color="#d3dff2"/><stop offset=".71" stop-color="#d3dff2"/><stop offset=".74" stop-color="#d3dff2"/><stop offset=".74" stop-color="#fff3f2"/><stop offset=".83" stop-color="#fff3f2"/><stop offset=".85" stop-color="#fff3f2"/><stop offset=".85" stop-color="#d3dff2"/></linearGradient><g id="010---Shocked-Astronaut" fill="none"><g id="Icons_copy" transform="translate(1)"><path id="Shape" d="m47 26v6c0 6.627417-5.372583 12-12 12h-12c-6.627417 0-12-5.372583-12-12v-6c0-9.9411255 8.0588745-18 18-18s18 8.0588745 18 18z" fill="#e8edfc"/><path id="Shape" d="m29 8c-.5010266.00144708-1.0016617.02814762-1.5.08 9.320392.77940593 16.4909631 8.5670808 16.5 17.92v6c0 6.627417-5.372583 12-12 12h3c6.627417 0 12-5.372583 12-12v-6c0-9.9411255-8.0588745-18-18-18z" fill="#cad9fc"/><path id="Shape" d="m45.42 44 .29.33-.39-.12c-.4279934-.1314753-.8723364-.2021662-1.32-.21h-9c6.627417 0 12-5.372583 12-12v-6c0-9.9411255-8.0588745-18-18-18s-18 8.0588745-18 18v6c0 3.1825979 1.2642821 6.2348448 3.5147186 8.4852814 2.2504366 2.2504365 5.3026835 3.5147186 8.4852814 3.5147186h-9c-.4462451-.0019101-.8905593.0586782-1.32.18v-.16c-5.48476672-4.589787-8.66168273-11.3681838-8.68-18.52.06597028-6.5642142 2.73703499-12.83333 7.4255178-17.42804308 4.6884828-4.59471314 11.0102748-7.13859695 17.5744822-7.07195692 6.5642074-.06664003 12.8859994 2.47724378 17.5744822 7.07195692 4.6884828 4.59471308 7.3595475 10.86382888 7.4255178 17.42804308.0019984 7.1288616-3.1367489 13.8965568-8.58 18.5z" fill="url(#linearGradient-1)"/><path id="Shape" d="m45.71 44.3-.39-.12c-.4294407-.1213218-.8737549-.1819101-1.32-.18h-30c-.4462451-.0019101-.8905593.0586782-1.32.18-2.1721878.5945503-3.6788228 2.5679146-3.68 4.82v10h40.0000002l-.0000002-10c.0006308-2.102581-1.3142046-3.9809174-3.29-4.7zm-1.71 10.7c0 .5522847-.4477153 1-1 1h-10c-.5522847 0-1-.4477153-1-1v-6c0-.5522847.4477153-1 1-1h10c.5522847 0 1 .4477153 1 1z" fill="#e8edfc"/><path id="Shape" d="m51 25.5c.0019984 7.1288616-3.1367489 13.8965568-8.58 18.5h1.58c.4462451-.0019101.8905593.0586782 1.32.18l.39.12-.29-.3c5.4432511-4.6034432 8.5819984-11.3711384 8.58-18.5-.0659703-6.5642142-2.737035-12.83333-7.4255178-17.42804308-4.6884828-4.59471314-11.0102748-7.13859695-17.5744822-7.07195692-.5 0-1 0-1.5.05 13.072331.64032478 23.3779605 11.3625648 23.5 24.45z" fill="#a4c2f7"/><path id="Shape" d="m12.64 44v.16c.4433047-.1183292.9013371-.1722153 1.36-.16h-1.38z" fill="#cad9fc"/><path id="Shape" d="m9 48v11h-9v-5c0-3.3137085 2.6862915-6 6-6z" fill="#a4c2f7"/><path id="Shape" d="m58 54v5h-9v-11h3c3.3137085 0 6 2.6862915 6 6z" fill="#a4c2f7"/><path id="Shape" d="m52 48h-3c3.3137085 0 6 2.6862915 6 6v5h3v-5c0-3.3137085-2.6862915-6-6-6z" fill="#7facfa"/><path id="Shape" d="m44 49v6c0 .5522847-.4477153 1-1 1h-10c-.5522847 0-1-.4477153-1-1v-3h4c.5522847 0 1-.4477153 1-1v-3h6c.5522847 0 1 .4477153 1 1z" fill="#e8edfc"/><g fill="#a4c2f7"><path id="Shape" d="m37 48v3c0 .5522847-.4477153 1-1 1h-4v-3c0-.5522847.4477153-1 1-1z"/><path id="Shape" d="m25 26v-3c0-1.1045695-.8954305-2-2-2s-2 .8954305-2 2v3"/><path id="Shape" d="m37 26v-3c0-1.1045695-.8954305-2-2-2s-2 .8954305-2 2v3"/><circle id="Oval" cx="29" cy="35" r="3"/></g></g><g id="whites" fill="#fff" transform="translate(1)"><path id="Shape" d="m12.62 44v.16c-1.796225.5225966-3.15047527 2.0041696-3.51 3.84h2.89c0-2.3 1.56-3.24 3.68-3.82v-.16c-5.4858824-4.5889279-8.66305681-11.367876-8.68-18.52.1270138-13.0854047 10.4298949-23.80478528 23.5-24.45-.5-.05-1-.05-1.5-.05-13.6670984-.13322897-24.85712696 10.832999-25 24.5.00794753 7.1353567 3.16183855 13.9041484 8.62 18.5z"/><path id="Shape" d="m3 54c0-3.3137085 2.6862915-6 6-6h-3c-3.3137085 0-6 2.6862915-6 6v5h3z"/></g><path id="Shape" d="m5.39 17.32 1.89.68c-.81255898 2.4186108-1.24437661 4.9487922-1.28 7.5h-2c.03011272-2.7828127.49921655-5.5434382 1.39-8.18z" fill="#fff"/><g fill="#428dff"><path id="Shape" d="m5.38 22.51c-.55228475 0-1-.4477153-1-1s.44771525-1 1-1 1 .4477153 1 1-.44771525 1-1 1z"/><path id="Shape" d="m53 47h-2.35c-.4695929-1.3254637-1.3898134-2.4438855-2.6-3.16 5.0629589-4.7573857 7.9391898-11.3926153 7.95-18.34 0-14.06-11.66-25.5-26-25.5-2.6765569.0368004-5.3351307.44399968-7.9 1.21-2.5518753.81447982-4.9683402 2.00417597-7.17 3.53-2.2065399 1.52353876-4.15173 3.39443333-5.76 5.54-1.6376782 2.1087348-2.91494711 4.4740476-3.78 7-.10235476.2554095-.09494693.5417086.02047918.7914831.11542612.2497746.32867041.4409522.58952082.5285169.51721168.1552387 1.06845235-.1031554 1.28-.6.79111694-2.3417614 1.96725133-4.5351844 3.48-6.49 1.486856-1.97846571 3.2832886-3.70398649 5.32-5.11 2.0300593-1.41851228 4.2616022-2.52417102 6.62-3.28 2.3705459-.70594169 4.8268526-1.08279971 7.3-1.12 13.23 0 24 10.54 24 23.5-.0191919 6.7560131-2.9711435 13.1707609-8.09 17.58-.3005292-.0523221-.6049515-.0790845-.91-.08h-2.1c3.7899048-2.3734762 6.0939044-6.5282296 6.1-11v-6c-.0000002-10.4934101-8.5065899-18.9999996-19-18.9999996s-18.9999998 8.5065895-19 18.9999996v6c.0060956 4.4717704 2.3100952 8.6265238 6.1 11h-2.1c-.3050485.0009155-.6094708.0276779-.91.08-5.11885648-4.4092391-8.07080814-10.8239869-8.09-17.58 0-.5522847-.44771525-1-1-1s-1 .4477153-1 1c.02377316 6.9549014 2.91858859 13.5912658 8 18.34-1.2289605.7071311-2.16778864 1.8266394-2.65 3.16h-2.35c-3.86599325 0-7 3.1340068-7 7v5c0 .5522847.44771525 1 1 1h58c.5522847 0 1-.4477153 1-1v-5c0-3.8659932-3.1340068-7-7-7zm-40-15v-6c.0032483-1.0470421.1036791-2.0915225.3-3.12 1.5702517-1.6444389 3.3290815-3.0978231 5.24-4.33.4632328-.2987099.5974116-.9159327.3-1.38-.2987099-.4632328-.9159327-.5974116-1.38-.3-1.0444686.6561357-2.0464624 1.3775712-3 2.16 2.7465714-6.097268 8.8126738-10.01787998 15.5-10.01787998s12.7534286 3.92061198 15.5 10.01787998c-4.2865578-3.7610959-9.7589178-5.8955287-15.46-6.03-2.5026621.0045086-4.9857719.4409135-7.34 1.29-.5219091.1877768-.7927768.7630909-.605 1.285s.7630909.7927768 1.285.605c2.1355271-.7737617 4.3886274-1.1729597 6.66-1.18 8.21 0 14.28 5.35 16.7 7.89.1962761 1.0251133.2967093 2.0662707.3 3.11v6c0 6.0751322-4.9248678 11-11 11h-12c-6.0751322 0-11-4.9248678-11-11zm-11 22c0-2.7614237 2.23857625-5 5-5h2v9h-7zm9-5c0-2.209139 1.790861-4 4-4h30c2.209139 0 4 1.790861 4 4v9h-38zm47 9h-7v-9h2c2.7614237 0 5 2.2385763 5 5z"/><path id="Shape" d="m44 47h-10c-1.1045695 0-2 .8954305-2 2v6c0 1.1045695.8954305 2 2 2h10c1.1045695 0 2-.8954305 2-2v-6c0-1.1045695-.8954305-2-2-2zm-7 2v2h-3v-2zm-3 6v-2h3c1.1045695 0 2-.8954305 2-2v-2h5v6z"/><path id="Shape" d="m16 49h-1c-.5522847 0-1 .4477153-1 1s.4477153 1 1 1h1c.5522847 0 1-.4477153 1-1s-.4477153-1-1-1z"/><path id="Shape" d="m25 49h-5c-.5522847 0-1 .4477153-1 1s.4477153 1 1 1h5c.5522847 0 1-.4477153 1-1s-.4477153-1-1-1z"/><path id="Shape" d="m16 53h-1c-.5522847 0-1 .4477153-1 1s.4477153 1 1 1h1c.5522847 0 1-.4477153 1-1s-.4477153-1-1-1z"/><path id="Shape" d="m25 53h-5c-.5522847 0-1 .4477153-1 1s.4477153 1 1 1h5c.5522847 0 1-.4477153 1-1s-.4477153-1-1-1z"/><path id="Shape" d="m30 31c-2.209139 0-4 1.790861-4 4s1.790861 4 4 4 4-1.790861 4-4-1.790861-4-4-4zm0 6c-1.1045695 0-2-.8954305-2-2s.8954305-2 2-2 2 .8954305 2 2-.8954305 2-2 2z"/><path id="Shape" d="m27 27c.5522847 0 1-.4477153 1-1s-.4477153-1-1-1v-2c0-1.6568542-1.3431458-3-3-3s-3 1.3431458-3 3v2c-.5522847 0-1 .4477153-1 1s.4477153 1 1 1zm-4-4c0-.5522847.4477153-1 1-1s1 .4477153 1 1v2h-2z"/><path id="Shape" d="m39 27c.5522847 0 1-.4477153 1-1s-.4477153-1-1-1v-2c0-1.6568542-1.3431458-3-3-3s-3 1.3431458-3 3v2c-.5522847 0-1 .4477153-1 1s.4477153 1 1 1zm-4-4c0-.5522847.4477153-1 1-1s1 .4477153 1 1v2h-2z"/></g></g></svg>